<svg width="403" height="403" viewBox="0 0 403 403" fill="none" xmlns="http://www.w3.org/2000/svg">
<g filter="url(#filter0_d_6_53)">
<path d="M264.469 321.225C250.532 321.225 239.281 307.12 239.281 289.656C239.281 272.361 250.532 258.256 264.469 258.256C278.406 258.256 289.656 272.361 289.656 289.656C289.656 307.12 278.406 321.225 264.469 321.225ZM201.5 188.906C180.678 188.906 163.719 174.801 163.719 157.506C163.719 140.043 180.678 125.938 201.5 125.938C222.322 125.938 239.281 140.043 239.281 157.506C239.281 174.801 222.322 188.906 201.5 188.906ZM138.531 321.225C124.594 321.225 113.344 307.12 113.344 289.656C113.344 272.361 124.594 258.256 138.531 258.256C152.468 258.256 163.719 272.361 163.719 289.656C163.719 307.12 152.468 321.225 138.531 321.225ZM201.5 138.531C208.385 138.531 214.094 144.24 214.094 151.125C214.094 158.01 208.385 163.719 201.5 163.719C194.615 163.719 188.906 158.01 188.906 151.125C188.906 144.24 194.615 138.531 201.5 138.531ZM314.844 201.5C309.47 201.5 304.265 202.675 299.563 204.858C291.503 194.615 280.589 185.884 267.491 179.167C277.063 165.734 282.772 149.446 282.772 131.815V130.807C301.075 126.945 314.844 110.657 314.844 91.0108C314.844 68.6779 296.541 50.375 274.208 50.375C262.622 50.375 251.875 55.2446 244.822 62.9688C231.872 54.7381 216.845 50.3669 201.5 50.3669C186.155 50.3669 171.128 54.7381 158.177 62.9688C151.125 55.2446 140.378 50.375 128.792 50.375C106.459 50.375 88.1562 68.6779 88.1562 91.0108C88.1562 110.489 101.925 126.777 120.06 130.807V131.815C120.06 149.446 125.937 165.902 135.341 179.167C122.411 185.884 111.497 194.615 103.437 204.858C97.6983 202.273 91.4031 201.17 85.1277 201.648C78.8523 202.127 72.7973 204.173 67.5174 207.598C62.2374 211.023 57.9014 215.718 54.9065 221.254C51.9115 226.789 50.3535 232.988 50.375 239.281C50.375 260.271 67.1666 277.063 88.1562 277.063H89.1637C88.4921 281.093 88.1562 285.458 88.1562 289.656C88.1562 324.415 110.657 352.625 138.531 352.625C155.491 352.625 170.435 342.046 179.671 325.926C186.723 326.934 193.944 327.438 201.5 327.438C209.056 327.438 216.277 326.934 223.329 325.926C232.565 342.046 247.509 352.625 264.469 352.625C292.343 352.625 314.844 324.415 314.844 289.656C314.844 285.458 314.508 281.093 313.836 277.063H314.844C335.833 277.063 352.625 260.271 352.625 239.281C352.625 218.292 335.833 201.5 314.844 201.5Z" fill="#0077FF"/>
</g>
<defs>
<filter id="filter0_d_6_53" x="-4" y="0" width="411" height="411" filterUnits="userSpaceOnUse" color-interpolation-filters="sRGB">
<feFlood flood-opacity="0" result="BackgroundImageFix"/>
<feColorMatrix in="SourceAlpha" type="matrix" values="0 0 0 0 0 0 0 0 0 0 0 0 0 0 0 0 0 0 127 0" result="hardAlpha"/>
<feOffset dy="4"/>
<feGaussianBlur stdDeviation="2"/>
<feComposite in2="hardAlpha" operator="out"/>
<feColorMatrix type="matrix" values="0 0 0 0 0 0 0 0 0 0 0 0 0 0 0 0 0 0 0.25 0"/>
<feBlend mode="normal" in2="BackgroundImageFix" result="effect1_dropShadow_6_53"/>
<feBlend mode="normal" in="SourceGraphic" in2="effect1_dropShadow_6_53" result="shape"/>
</filter>
</defs>
</svg>
