<svg width="350" height="350" viewBox="0 0 350 350" fill="none" xmlns="http://www.w3.org/2000/svg">
<path d="M175 43.75L335.417 164.062L317.917 187.396L291.667 167.708V306.25H58.3333V167.708L32.0833 187.396L14.5833 164.062L175 43.75ZM107.187 175.729C107.187 188.611 114.115 202.344 127.969 216.927C141.823 231.51 157.5 246.701 175 262.5C192.5 246.701 208.177 231.51 222.031 216.927C235.885 202.344 242.812 188.611 242.812 175.729C242.812 165.035 239.167 156.163 231.875 149.115C224.583 142.066 215.833 138.542 205.625 138.542C199.305 138.542 193.53 139.82 188.3 142.377C183.069 144.934 178.636 148.274 175 152.396C171.354 148.264 166.799 144.924 161.335 142.377C155.871 139.83 150.218 138.551 144.375 138.542C134.167 138.542 125.417 142.066 118.125 149.115C110.833 156.163 107.187 165.035 107.187 175.729Z" fill="#0077FF"/>
</svg>
