<svg width="479" height="479" viewBox="0 0 479 479" fill="none" xmlns="http://www.w3.org/2000/svg">
<path d="M256.165 63.0884C257.268 62.2361 258.254 61.243 259.099 60.1346H310.232L310.931 60.1146C314.554 59.9169 318.185 59.9169 321.808 60.1146H322.567C333.931 60.0773 345.158 62.5942 355.418 67.4792C374.168 74.8404 390.388 87.4696 402.12 103.843C411.008 116.24 417.053 130.443 419.827 145.442C422.6 160.441 422.034 175.867 418.167 190.622L352.684 126.017C349.881 123.253 346.102 121.704 342.166 121.706H246.865C243.807 121.83 240.86 122.889 238.422 124.74L200.821 153.24C196.738 156.342 191.591 157.698 186.51 157.009C181.428 156.321 176.828 153.645 173.717 149.568C172.183 147.581 171.058 145.309 170.409 142.884C169.759 140.459 169.598 137.929 169.934 135.441C170.27 132.953 171.097 130.556 172.366 128.39C173.636 126.225 175.323 124.332 177.33 122.824L256.165 63.0884ZM157.651 284.107L157.371 284.366L137.932 303.686L137.673 303.926C134.268 307.163 129.738 308.948 125.04 308.903C120.343 308.858 115.847 306.987 112.505 303.686C110.831 302.034 109.501 300.065 108.593 297.895C107.686 295.724 107.219 293.395 107.219 291.043C107.219 288.69 107.686 286.361 108.593 284.19C109.501 282.02 110.831 280.051 112.505 278.399L131.945 259.079C135.33 255.726 139.903 253.845 144.668 253.845C149.433 253.845 154.006 255.726 157.391 259.079C160.729 262.372 162.629 266.851 162.678 271.54C162.727 276.228 160.92 280.746 157.651 284.107ZM151.843 317.996C148.574 321.358 146.767 325.875 146.816 330.564C146.865 335.252 148.765 339.731 152.102 343.024C159.128 350.009 170.524 350.009 177.549 343.024L196.989 323.704C198.873 321.836 200.316 319.569 201.212 317.071C202.107 314.573 202.433 311.906 202.165 309.266C201.897 306.626 201.043 304.079 199.663 301.812C198.284 299.544 196.416 297.614 194.195 296.162C190.785 293.918 186.716 292.894 182.65 293.257C178.584 293.619 174.761 295.346 171.801 298.158L171.542 298.437L152.102 317.737L151.843 317.996ZM109.771 227.665C111.445 229.317 112.775 231.286 113.683 233.456C114.59 235.627 115.057 237.956 115.057 240.308C115.057 242.661 114.59 244.99 113.683 247.161C112.775 249.331 111.445 251.3 109.771 252.952L90.3314 272.272C86.9456 275.625 82.3731 277.506 77.608 277.506C72.8429 277.506 68.2704 275.625 64.8845 272.272C63.21 270.619 61.8804 268.651 60.9729 266.48C60.0653 264.31 59.598 261.981 59.598 259.628C59.598 257.276 60.0653 254.946 60.9729 252.776C61.8804 250.605 63.21 248.637 64.8845 246.984L84.324 227.665C87.7098 224.312 92.2823 222.431 97.0474 222.431C101.812 222.431 106.385 224.312 109.771 227.665ZM236.566 337.775C238.241 339.427 239.57 341.396 240.478 343.566C241.385 345.737 241.853 348.066 241.853 350.419C241.853 352.771 241.385 355.1 240.478 357.271C239.57 359.441 238.241 361.41 236.566 363.062L217.127 382.382C213.741 385.735 209.168 387.616 204.403 387.616C199.638 387.616 195.066 385.735 191.68 382.382C189.024 379.757 187.262 376.362 186.646 372.678C186.03 368.995 186.59 365.211 188.247 361.865L188.267 361.825C189.139 360.073 190.292 358.475 191.68 357.095L211.119 337.775C214.505 334.422 219.078 332.541 223.843 332.541C228.608 332.541 233.18 334.422 236.566 337.775ZM106.657 96.3989C119.91 83.2344 135.98 73.252 153.654 67.205C171.328 61.1581 190.145 59.2045 208.684 61.4917L159.267 98.9535C154.116 102.844 149.786 107.717 146.527 113.29C143.268 118.863 141.145 125.026 140.28 131.424C139.415 137.822 139.826 144.327 141.489 150.566C143.151 156.804 146.033 162.651 149.967 167.77C157.899 178.11 169.599 184.892 182.514 186.639C195.428 188.385 208.51 184.952 218.903 177.09L252.513 151.644H336.038L406.032 220.699L406.751 221.498L429.703 244.45C434.866 249.685 437.825 256.701 437.969 264.052C438.114 271.403 435.434 278.53 430.481 283.964C425.527 289.398 418.679 292.725 411.346 293.261C404.012 293.796 396.753 291.498 391.064 286.841L389.148 284.925L387.95 283.887L366.136 262.093C365.215 261.14 364.114 260.38 362.896 259.857C361.679 259.334 360.369 259.058 359.044 259.047C357.719 259.035 356.405 259.288 355.179 259.79C353.953 260.291 352.838 261.032 351.901 261.969C350.964 262.906 350.223 264.02 349.722 265.247C349.22 266.473 348.967 267.787 348.979 269.112C348.99 270.437 349.266 271.747 349.789 272.964C350.312 274.182 351.072 275.283 352.025 276.203L374.977 299.156C375.815 299.981 376.667 300.772 377.532 301.531L378.41 302.409C380.332 304.29 381.862 306.533 382.911 309.009C383.96 311.485 384.508 314.145 384.522 316.834C384.537 319.523 384.018 322.189 382.995 324.676C381.973 327.163 380.467 329.423 378.566 331.324C376.664 333.226 374.404 334.732 371.917 335.754C369.43 336.776 366.765 337.295 364.075 337.281C361.386 337.266 358.727 336.719 356.251 335.67C353.774 334.62 351.531 333.091 349.65 331.169L346.257 327.796C344.85 326.392 343.055 325.441 341.103 325.064C339.152 324.686 337.132 324.901 335.303 325.679C333.474 326.458 331.919 327.765 330.837 329.432C329.756 331.1 329.197 333.053 329.233 335.041C329.204 336.39 329.449 337.732 329.953 338.984C330.457 340.236 331.21 341.373 332.167 342.325L336.617 346.776C338.451 348.503 339.92 350.581 340.936 352.886C341.953 355.191 342.496 357.677 342.534 360.196C342.572 362.715 342.104 365.215 341.157 367.55C340.211 369.885 338.805 372.006 337.024 373.787C335.242 375.568 333.121 376.974 330.787 377.92C328.452 378.867 325.951 379.335 323.432 379.297C320.913 379.259 318.428 378.716 316.122 377.7C313.817 376.683 311.74 375.215 310.013 373.381H309.993L309.753 373.121L305.562 368.93C304.64 367.996 303.541 367.255 302.33 366.749C301.119 366.244 299.819 365.983 298.507 365.983C297.194 365.983 295.895 366.244 294.684 366.749C293.473 367.255 292.374 367.996 291.452 368.93C289.581 370.801 288.53 373.339 288.53 375.985C288.53 378.631 289.581 381.169 291.452 383.04L295.802 387.411C297.594 389.18 299.019 391.285 299.997 393.605C300.975 395.925 301.487 398.415 301.503 400.933C301.518 403.451 301.038 405.947 300.089 408.279C299.14 410.611 297.741 412.733 295.972 414.525C294.203 416.316 292.098 417.742 289.778 418.72C287.458 419.698 284.968 420.209 282.451 420.225C279.933 420.241 277.437 419.76 275.105 418.811C272.772 417.863 270.65 416.464 268.859 414.694L240.298 387.551L250.776 377.133C254.306 373.637 257.108 369.476 259.02 364.89C260.932 360.305 261.916 355.387 261.916 350.419C261.916 345.451 260.932 340.532 259.02 335.947C257.108 331.361 254.306 327.2 250.776 323.704C247.048 319.989 242.586 317.091 237.676 315.194C232.766 313.297 227.514 312.444 222.256 312.687C222.489 307.45 221.621 302.223 219.71 297.341C217.799 292.46 214.886 288.033 211.159 284.346C207.433 280.634 202.974 277.737 198.068 275.84C193.161 273.944 187.914 273.089 182.659 273.329C182.889 268.096 182.02 262.872 180.109 257.994C178.198 253.116 175.286 248.693 171.562 245.009C166.821 240.299 160.925 236.918 154.466 235.205C148.007 233.492 141.21 233.507 134.759 235.249C133.65 227.036 129.853 219.422 123.961 213.594C117.395 207.086 108.692 203.18 99.4654 202.6C90.2389 202.02 81.115 204.806 73.786 210.441C69.08 190.206 69.6301 169.105 75.3838 149.143C81.1376 129.181 91.9035 111.024 106.657 96.3989Z" fill="#0077FF"/>
</svg>
