<svg width="306" height="306" viewBox="0 0 306 306" fill="none" xmlns="http://www.w3.org/2000/svg">
<path d="M285.766 240.401L191.25 82.9069V19.125H200.813C206.072 19.125 210.375 14.8219 210.375 9.5625C210.375 4.30312 206.072 0 200.813 0H105.188C99.9282 0 95.625 4.30312 95.625 9.5625C95.625 14.8219 99.9282 19.125 105.188 19.125H114.75V82.9069L20.2343 240.401C-1.41521 276.471 15.3 306 57.375 306H248.625C290.7 306 307.415 276.49 285.766 240.401ZM72.0248 191.25L133.875 88.1663V19.125H172.125V88.1663L233.975 191.25H72.0248Z" fill="#0077FF"/>
</svg>
