<svg width="62" height="62" viewBox="0 0 62 62" fill="none" xmlns="http://www.w3.org/2000/svg">
<path fill-rule="evenodd" clip-rule="evenodd" d="M42.7593 57.1769C39.0393 57.04 28.4967 55.583 17.4556 44.5444C6.41698 33.5033 4.96256 22.9633 4.82306 19.2407C4.6164 13.5677 8.96156 8.05742 13.981 5.90551C14.5854 5.64451 15.2473 5.54513 15.9018 5.61714C16.5562 5.68915 17.1807 5.93007 17.7139 6.31626C21.8472 9.32842 24.6992 13.8854 27.1482 17.4685C27.6871 18.2557 27.9175 19.2137 27.7955 20.1598C27.6735 21.106 27.2078 21.9742 26.4869 22.599L21.4468 26.3423C21.2033 26.5181 21.0319 26.7763 20.9644 27.069C20.897 27.3617 20.938 27.6689 21.08 27.9336C22.2218 30.008 24.2523 33.0977 26.5773 35.4227C28.9023 37.7477 32.1392 39.9125 34.3583 41.1835C34.6365 41.3397 34.964 41.3834 35.2735 41.3055C35.5829 41.2277 35.8508 41.0343 36.022 40.765L39.3028 35.7714C39.906 34.9702 40.7958 34.4334 41.7859 34.2736C42.7759 34.1137 43.7894 34.3431 44.6141 34.9138C48.2489 37.4299 52.4907 40.2328 55.5959 44.2086C56.0134 44.7457 56.279 45.3851 56.3649 46.0599C56.4508 46.7348 56.3538 47.4203 56.0841 48.0448C53.9219 53.0901 48.4504 57.3862 42.7593 57.1769Z" fill="#0077FF"/>
</svg>
