<svg width="388" height="388" viewBox="0 0 388 388" fill="none" xmlns="http://www.w3.org/2000/svg">
<path d="M194 339.5C162.475 339.5 135.735 328.523 113.781 306.568C91.8267 284.614 80.8442 257.869 80.8334 226.333C80.8334 201.006 88.3132 178.308 103.273 158.239C118.232 138.171 137.832 124.629 162.071 117.613C153.179 115.457 145.435 111.62 138.839 106.102C132.243 100.584 126.919 93.9122 122.867 86.0875C118.814 78.2628 115.985 69.7753 114.379 60.625C112.773 51.4747 112.504 42.1788 113.571 32.7375C124.618 31.3903 135.126 32.0639 145.096 34.7583C155.065 37.4528 164.092 41.7639 172.175 47.6917C180.258 53.6195 186.93 60.7597 192.189 69.1125C197.449 77.4653 200.612 86.8958 201.679 97.4042C205.182 89.0514 209.833 80.7687 215.631 72.556C221.429 64.3433 230.386 54.1691 242.5 42.0333L265.133 64.6667C253.547 76.2528 244.99 86.0875 239.461 94.1708C233.932 102.254 230.095 110.338 227.95 118.421C251.661 125.965 270.792 139.642 285.342 159.452C299.892 179.261 307.167 201.555 307.167 226.333C307.167 257.858 296.19 284.603 274.235 306.568C252.281 328.534 225.536 339.511 194 339.5Z" fill="#0077FF"/>
</svg>
