<svg width="303" height="303" viewBox="0 0 303 303" fill="none" xmlns="http://www.w3.org/2000/svg">
<path d="M145.947 91.0088C153.338 91.0151 160.429 88.0853 165.66 82.8639C170.891 77.6425 173.834 70.557 173.842 63.1659C173.838 59.5065 173.114 55.8835 171.711 52.504C170.307 49.1245 168.251 46.0547 165.661 43.4699C163.07 40.8852 159.996 38.8361 156.613 37.4399C153.231 36.0437 149.606 35.3276 145.947 35.3325C130.536 35.3325 118.047 47.7934 118.047 63.1659C118.058 70.5567 121.003 77.6407 126.234 82.8614C131.466 88.0822 138.556 91.0126 145.947 91.0088ZM230.943 279.233H8.55029C2.28672 279.233 2.93059 284.157 2.93059 284.157V292.352C2.93059 292.352 2.36247 303 13.2989 303H291.761C302.768 303 302.172 292.598 302.172 292.598V269.902C302.172 269.902 301.239 262.725 292.797 262.725H265.66C256.357 262.725 248.668 279.229 230.948 279.229L230.943 279.233ZM252.569 228.945C252.569 242.779 263.828 254.013 277.7 254.013C291.571 254.013 302.853 242.774 302.853 228.945C302.853 215.059 291.566 203.867 277.7 203.867C274.402 203.862 271.137 204.507 268.089 205.765C265.041 207.023 262.271 208.869 259.937 211.198C257.603 213.527 255.751 216.293 254.487 219.338C253.223 222.383 252.571 225.648 252.569 228.945ZM170.423 181.113C169.588 183.664 168.188 185.992 166.328 187.927C164.468 189.861 162.196 191.352 159.681 192.287L137.302 200.586L145.558 208.781H183.339L183.315 150.951L170.67 180.763C170.608 180.905 170.494 180.986 170.419 181.113H170.423Z" fill="#0077FF"/>
<path d="M224.684 222.52H146.567L127.733 204.132L114.624 208.961C104.9 212.441 93.0589 207.129 89.4087 197.466C87.2593 191.468 87.5576 184.768 91.1462 179.887C89.5413 179.816 43.7693 179.887 43.7693 179.887C41.9622 179.882 40.1716 180.232 38.5 180.919C36.8283 181.605 35.3083 182.614 34.0267 183.888C32.7451 185.163 31.7271 186.677 31.0308 188.344C30.3345 190.012 29.9736 191.8 29.9686 193.608C29.9686 201.216 36.1564 207.162 43.7693 207.162H90.3698L108.848 235.137L13.4457 242.802C10.1437 243.556 7.23542 245.501 5.27652 248.264C3.31763 251.027 2.44552 254.414 2.82687 257.78C3.20822 261.145 4.81628 264.252 7.34375 266.507C9.87121 268.761 13.1408 270.005 16.5277 270.001L123.567 270.016C121.633 266.925 120.602 263.355 120.589 259.709C120.593 254.47 122.676 249.447 126.38 245.743C130.084 242.039 135.107 239.956 140.346 239.952H183.173L217.881 232.704L219.808 241.922L184.144 249.369H140.341C137.603 249.341 134.966 250.402 133.011 252.319C131.055 254.235 129.941 256.85 129.914 259.588C129.886 262.326 130.947 264.963 132.864 266.918C134.78 268.874 137.395 269.988 140.133 270.016L224.869 270.025C231.146 269.998 237.156 267.485 241.585 263.037C246.014 258.589 248.501 252.569 248.503 246.292C248.502 243.166 247.885 240.071 246.687 237.184C245.49 234.297 243.735 231.674 241.522 229.466C239.31 227.258 236.684 225.507 233.795 224.314C230.906 223.122 227.81 222.515 224.684 222.52Z" fill="#0077FF"/>
<path d="M112.972 200.335C110.32 201.493 107.317 201.553 104.621 200.501C101.925 199.45 99.7561 197.373 98.5886 194.725C98.0096 193.411 97.6957 191.996 97.6649 190.561C97.6341 189.126 97.887 187.699 98.4092 186.361C98.9313 185.024 99.7124 183.803 100.708 182.769C101.703 181.734 102.892 180.906 104.208 180.332L143.982 165.4L156.272 136.085L148.262 133.126L137.813 158.228L107.537 169.377V138.689L77.942 171.01L44.451 170.977C44.451 170.977 103.058 106.732 104.89 104.81C107.319 102.4 112.872 98.4041 123.345 98.4041H160.978C182.359 98.4041 186.473 119.718 182.098 130.749L162.417 178.481C161.819 179.853 160.95 181.088 159.861 182.115C158.772 183.141 157.487 183.935 156.083 184.451L112.972 200.326V200.335Z" fill="#0077FF"/>
</svg>
