<svg width="446" height="446" viewBox="0 0 446 446" fill="none" xmlns="http://www.w3.org/2000/svg">
<path fill-rule="evenodd" clip-rule="evenodd" d="M120.792 55.75C115.863 55.75 111.136 57.7079 107.651 61.1929C104.166 64.678 102.208 69.4047 102.208 74.3333V83.625H55.75V260.167H260.167V83.625H213.708V74.3333C213.708 69.4047 211.75 64.678 208.265 61.1929C204.78 57.7079 200.054 55.75 195.125 55.75H120.792ZM195.125 167.25C200.054 167.25 204.78 165.292 208.265 161.807C211.75 158.322 213.708 153.595 213.708 148.667V139.375H241.583V241.583H195.125V185.833H120.792V241.583H74.3333V139.375H102.208V148.667C102.208 153.595 104.166 158.322 107.651 161.807C111.136 165.292 115.863 167.25 120.792 167.25H195.125ZM74.3333 102.208H102.208V120.792H74.3333V102.208ZM241.583 120.792H213.708V102.208H241.583V120.792ZM176.542 204.417V241.583H139.375V204.417H176.542ZM148.667 74.3333V102.208H120.792V120.792H148.667V148.667H167.25V120.792H195.125V102.208H167.25V74.3333H148.667Z" fill="#0077FF"/>
<path d="M278.75 250.875C278.75 241.018 282.666 231.564 289.636 224.594C296.606 217.624 306.06 213.708 315.917 213.708C325.774 213.708 335.227 217.624 342.198 224.594C349.168 231.564 353.083 241.018 353.083 250.875C353.083 260.732 349.168 270.186 342.198 277.156C335.227 284.126 325.774 288.042 315.917 288.042C306.06 288.042 296.606 284.126 289.636 277.156C282.666 270.186 278.75 260.732 278.75 250.875ZM315.917 306.625C291.108 306.625 241.583 320.209 241.583 347.174V371.667H157.958C151.185 371.667 146.79 369.223 143.993 366.073C141.048 362.756 139.375 358.073 139.375 353.083V319.763L169.973 350.361L183.111 337.222L130.083 284.195L77.0559 337.222L90.1943 350.361L120.792 319.763V353.083C120.792 362.031 123.765 371.286 130.111 378.422C136.606 385.725 146.149 390.25 157.958 390.25H390.25V347.174C390.25 320.209 340.726 306.625 315.917 306.625Z" fill="#0077FF"/>
</svg>
