<svg width="435" height="435" viewBox="0 0 435 435" fill="none" xmlns="http://www.w3.org/2000/svg">
<path d="M239.177 41.1074L298.084 143.151C300.481 147.312 301.13 152.255 299.886 156.894C298.642 161.533 295.608 165.488 291.45 167.892L267.887 181.486L286.031 212.878L254.638 231.003L236.513 199.592L212.969 213.204C208.806 215.608 203.859 216.259 199.216 215.015C194.572 213.771 190.614 210.733 188.21 206.571L154.896 148.897C143.009 152.505 131.991 158.518 122.525 166.563C113.06 174.608 105.35 184.513 99.8731 195.663C94.3966 206.813 91.271 218.97 90.6903 231.379C90.1096 243.788 92.0862 256.184 96.4975 267.797C110.995 258.586 127.824 253.712 145 253.75C175.522 253.75 202.529 268.848 218.95 291.976L358.295 211.519L376.42 242.929L233.631 325.362C236.257 337.602 236.319 350.253 233.812 362.518L380.625 362.5V398.75L72.5 398.768C60.7076 383.089 54.3448 363.994 54.375 344.375C54.375 326.123 59.7762 309.122 69.0562 294.894C60.6541 278.978 55.7328 261.457 54.6188 243.494C53.5048 225.531 56.2236 207.536 62.5948 190.704C68.966 173.872 78.8439 158.587 91.5731 145.864C104.302 133.14 119.592 123.269 136.427 116.906L129.304 104.545C124.497 96.219 123.194 86.3247 125.682 77.0384C128.171 67.7522 134.246 59.8346 142.571 55.0274L189.66 27.8399C197.986 23.0331 207.88 21.7304 217.166 24.2186C226.453 26.7067 234.37 32.7818 239.177 41.1074Z" fill="#0077FF"/>
</svg>
