<svg width="52" height="52" viewBox="0 0 52 52" fill="none" xmlns="http://www.w3.org/2000/svg">
<path fill-rule="evenodd" clip-rule="evenodd" d="M47.6666 26C47.6666 37.9665 37.9665 47.6667 26 47.6667C14.0335 47.6667 4.33331 37.9665 4.33331 26C4.33331 14.0335 14.0335 4.33337 26 4.33337C37.9665 4.33337 47.6666 14.0335 47.6666 26ZM28.1666 13C28.1666 12.4254 27.9384 11.8743 27.532 11.468C27.1257 11.0616 26.5746 10.8334 26 10.8334C25.4253 10.8334 24.8742 11.0616 24.4679 11.468C24.0616 11.8743 23.8333 12.4254 23.8333 13V23.8334H17.3333C16.7587 23.8334 16.2076 24.0616 15.8012 24.468C15.3949 24.8743 15.1666 25.4254 15.1666 26C15.1666 26.5747 15.3949 27.1258 15.8012 27.5321C16.2076 27.9384 16.7587 28.1667 17.3333 28.1667H25.5666C26.2562 28.1667 26.9175 27.8928 27.4051 27.4052C27.8927 26.9176 28.1666 26.2563 28.1666 25.5667V13Z" fill="#0077FF"/>
</svg>
