<svg width="358" height="358" viewBox="0 0 358 358" fill="none" xmlns="http://www.w3.org/2000/svg">
<g filter="url(#filter0_d_6_65)">
<path d="M148.048 315.115L111.129 246.498L42.5125 209.579L68.9895 183.475L123.062 192.798L161.1 154.76L42.8854 104.417L74.2104 72.3458L217.783 97.7042L264.025 51.4625C269.743 45.7445 276.828 42.8854 285.281 42.8854C293.734 42.8854 300.819 45.7445 306.537 51.4625C312.255 57.1806 315.115 64.2013 315.115 72.5248C315.115 80.8483 312.255 87.8741 306.537 93.6021L259.923 140.217L285.281 283.417L253.583 315.115L202.867 196.9L164.829 234.937L174.525 288.638L148.048 315.115Z" fill="#0077FF"/>
</g>
<defs>
<filter id="filter0_d_6_65" x="-4" y="0" width="366" height="366" filterUnits="userSpaceOnUse" color-interpolation-filters="sRGB">
<feFlood flood-opacity="0" result="BackgroundImageFix"/>
<feColorMatrix in="SourceAlpha" type="matrix" values="0 0 0 0 0 0 0 0 0 0 0 0 0 0 0 0 0 0 127 0" result="hardAlpha"/>
<feOffset dy="4"/>
<feGaussianBlur stdDeviation="2"/>
<feComposite in2="hardAlpha" operator="out"/>
<feColorMatrix type="matrix" values="0 0 0 0 0 0 0 0 0 0 0 0 0 0 0 0 0 0 0.25 0"/>
<feBlend mode="normal" in2="BackgroundImageFix" result="effect1_dropShadow_6_65"/>
<feBlend mode="normal" in="SourceGraphic" in2="effect1_dropShadow_6_65" result="shape"/>
</filter>
</defs>
</svg>
