<svg width="321" height="263" viewBox="0 0 321 263" fill="none" xmlns="http://www.w3.org/2000/svg">
<path d="M160.417 0L320.833 120.312L303.333 143.646L277.083 123.958V262.5H43.75V123.958L17.5 143.646L0 120.312L160.417 0ZM92.6042 131.979C92.6042 144.861 99.5312 158.594 113.385 173.177C127.24 187.76 142.917 202.951 160.417 218.75C177.917 202.951 193.594 187.76 207.448 173.177C221.302 158.594 228.229 144.861 228.229 131.979C228.229 121.285 224.583 112.413 217.292 105.365C210 98.316 201.25 94.7917 191.042 94.7917C184.722 94.7917 178.947 96.0701 173.717 98.6271C168.486 101.184 164.053 104.524 160.417 108.646C156.771 104.514 152.216 101.174 146.752 98.6271C141.288 96.0799 135.635 94.8014 129.792 94.7917C119.583 94.7917 110.833 98.316 103.542 105.365C96.25 112.413 92.6042 121.285 92.6042 131.979Z" fill="#0077FF"/>
</svg>
