<svg width="187" height="187" viewBox="0 0 187 187" fill="none" xmlns="http://www.w3.org/2000/svg">
<path d="M107.333 186.667C90.5333 186.667 76.2222 180.756 64.4 168.933C52.5778 157.111 46.6667 142.8 46.6667 126V120.633C33.2889 118.456 22.1667 112.193 13.3 101.845C4.43333 91.4978 0 79.3271 0 65.3334V18.6667C0 16.0223 0.896001 13.8071 2.688 12.0214C4.48 10.2356 6.69511 9.33959 9.33333 9.33337H28C28 6.68892 28.896 4.47381 30.688 2.68803C32.48 0.902255 34.6951 0.00625441 37.3333 3.21839e-05C39.9716 -0.00619004 42.1898 0.889811 43.988 2.68803C45.7862 4.48626 46.6791 6.70137 46.6667 9.33337V28C46.6667 30.6445 45.7707 32.8627 43.9787 34.6547C42.1867 36.4467 39.9716 37.3396 37.3333 37.3334C34.6951 37.3271 32.48 36.4311 30.688 34.6454C28.896 32.8596 28 30.6445 28 28H18.6667V65.3334C18.6667 75.6 22.3222 84.3889 29.6333 91.7C36.9444 99.0111 45.7333 102.667 56 102.667C66.2667 102.667 75.0556 99.0111 82.3667 91.7C89.6778 84.3889 93.3333 75.6 93.3333 65.3334V28H84C84 30.6445 83.104 32.8627 81.312 34.6547C79.52 36.4467 77.3049 37.3396 74.6667 37.3334C72.0284 37.3271 69.8133 36.4311 68.0213 34.6454C66.2293 32.8596 65.3333 30.6445 65.3333 28V9.33337C65.3333 6.68892 66.2293 4.47381 68.0213 2.68803C69.8133 0.902255 72.0284 0.00625441 74.6667 3.21839e-05C77.3049 -0.00619004 79.5231 0.889811 81.3213 2.68803C83.1196 4.48626 84.0125 6.70137 84 9.33337H102.667C105.311 9.33337 107.529 10.2294 109.321 12.0214C111.113 13.8134 112.006 16.0285 112 18.6667V65.3334C112 79.3334 107.567 91.5071 98.7 101.855C89.8333 112.202 78.7111 118.462 65.3333 120.633V126C65.3333 137.667 69.4182 147.585 77.588 155.755C85.7578 163.924 95.6729 168.006 107.333 168C118.994 167.994 128.912 163.912 137.088 155.755C145.264 147.597 149.346 137.679 149.333 126V110.367C143.889 108.344 139.418 104.96 135.921 100.212C132.424 95.4645 130.673 90.0605 130.667 84C130.667 76.2223 133.389 69.6111 138.833 64.1667C144.278 58.7223 150.889 56 158.667 56C166.444 56 173.056 58.7223 178.5 64.1667C183.944 69.6111 186.667 76.2223 186.667 84C186.667 90.0667 184.918 95.4738 181.421 100.221C177.924 104.969 173.451 108.351 168 110.367V126C168 142.8 162.089 157.111 150.267 168.933C138.444 180.756 124.133 186.667 107.333 186.667Z" fill="#0077FF"/>
</svg>
