<svg width="146" height="146" viewBox="0 0 146 146" fill="none" xmlns="http://www.w3.org/2000/svg">
<path d="M104.319 2.28414L107.138 10.9592C108.013 13.5987 109.493 15.9969 111.461 17.9617C113.429 19.9266 115.829 21.4037 118.47 22.2749L127.145 25.0937L127.315 25.1423C127.984 25.3779 128.564 25.8153 128.973 26.3942C129.383 26.9731 129.604 27.6649 129.604 28.3742C129.604 29.0836 129.383 29.7754 128.973 30.3543C128.564 30.9332 127.984 31.3706 127.315 31.6061L118.64 34.4249C115.999 35.2961 113.599 36.7733 111.631 38.7381C109.664 40.703 108.183 43.1011 107.308 45.7406L104.489 54.4076C104.254 55.0767 103.816 55.6562 103.237 56.0662C102.658 56.4761 101.967 56.6962 101.257 56.6962C100.548 56.6962 99.8561 56.4761 99.2772 56.0662C98.6983 55.6562 98.2609 55.0767 98.0254 54.4076L95.1985 45.7406C94.3304 43.0953 92.8546 40.6901 90.8893 38.7179C88.9229 36.742 86.5203 35.255 83.8747 34.3763L75.1996 31.5575C74.5305 31.322 73.951 30.8846 73.5411 30.3057C73.1311 29.7268 72.911 29.035 72.911 28.3256C72.911 27.6163 73.1311 26.9245 73.5411 26.3456C73.951 25.7667 74.5305 25.3293 75.1996 25.0937L83.8747 22.2749C86.4825 21.3802 88.8471 19.8925 90.7825 17.929C92.7179 15.9655 94.1713 13.5797 95.0284 10.9592L97.8472 2.29224C98.081 1.62033 98.5182 1.03788 99.0981 0.625699C99.6779 0.213521 100.372 -0.00793457 101.083 -0.00793457C101.795 -0.00793457 102.488 0.213521 103.068 0.625699C103.648 1.03788 104.085 1.61223 104.319 2.28414ZM144.05 66.5333L137.845 64.5245C135.962 63.8951 134.252 62.8363 132.849 61.4319C131.446 60.0275 130.389 58.316 129.761 56.4326L127.736 50.2442C127.568 49.7658 127.256 49.3513 126.843 49.058C126.429 48.7647 125.935 48.6072 125.428 48.6072C124.921 48.6072 124.426 48.7647 124.013 49.058C123.599 49.3513 123.287 49.7658 123.119 50.2442L121.11 56.4326C120.494 58.3039 119.455 60.0077 118.072 61.4112C116.69 62.8148 115.002 63.8802 113.14 64.5245L106.943 66.5333C106.469 66.7047 106.058 67.0183 105.768 67.4314C105.478 67.8446 105.323 68.3371 105.323 68.8418C105.323 69.3466 105.478 69.8391 105.768 70.2522C106.058 70.6653 106.469 70.979 106.943 71.1503L113.14 73.1672C115.028 73.797 116.744 74.8585 118.15 76.2674C119.556 77.6764 120.614 79.3939 121.24 81.2834L123.249 87.4718C123.416 87.9503 123.729 88.3648 124.142 88.6581C124.556 88.9514 125.05 89.1089 125.557 89.1089C126.064 89.1089 126.559 88.9514 126.972 88.6581C127.386 88.3648 127.698 87.9503 127.866 87.4718L129.883 81.2834C130.511 79.3992 131.569 77.6871 132.974 76.2827C134.378 74.8782 136.09 73.8199 137.975 73.1915L144.171 71.1827C144.646 71.0114 145.056 70.6977 145.346 70.2846C145.636 69.8715 145.792 69.379 145.792 68.8742C145.792 68.3695 145.636 67.877 145.346 67.4639C145.056 67.0507 144.646 66.7371 144.171 66.5657L144.05 66.5333ZM125.573 97.1999C123.418 97.1974 121.313 96.5484 119.531 95.3369C117.749 94.0409 116.453 92.3318 115.643 90.3068L113.537 83.8106C113.323 83.1268 112.932 82.5119 112.403 82.0286C111.899 81.5246 111.291 81.1374 110.621 80.8946L104.449 78.8696C102.262 78.0596 100.48 76.7555 99.1837 74.9735C97.8877 73.1915 97.2397 71.0774 97.2397 68.8823C97.2397 67.3433 97.5637 65.8043 98.2117 64.4273C96.9157 64.1033 95.7007 63.5363 94.5667 62.7263C92.6394 61.3136 91.1715 59.3639 90.3466 57.1211L87.4306 48.2759C86.7016 46.4129 85.9726 45.3599 85.0816 44.4689C83.9939 43.4184 82.6927 42.6145 81.2665 42.1118L72.6724 39.2768C71.2721 38.8111 69.9761 38.0764 68.8573 37.1141V139.741C72.0261 142.552 75.8803 144.478 80.031 145.323C84.1817 146.169 88.4821 145.905 92.498 144.557C96.5139 143.21 100.103 140.827 102.904 137.649C105.705 134.471 107.618 130.611 108.45 126.457L108.75 124.942C115.087 123.598 120.706 119.965 124.531 114.737C128.357 109.51 130.121 103.055 129.486 96.6086C128.223 97.0182 126.901 97.2179 125.573 97.1999ZM60.7573 19.9421C58.0943 18.008 54.9876 16.7746 51.7231 16.3554C48.4586 15.9362 45.1411 16.3448 42.0758 17.5435C39.0105 18.7422 36.296 20.6925 34.1818 23.215C32.0676 25.7375 30.6218 28.7512 29.9773 31.9787L28.9648 37.0574L25.6762 37.7135C20.7229 38.7071 16.2664 41.3848 13.0637 45.2919C9.86097 49.1989 8.10967 54.0942 8.10729 59.1461V60.7499C8.10729 66.6305 10.6183 71.9279 14.6278 75.6296C9.73043 78.0564 5.71046 81.9481 3.12631 86.7643C0.542158 91.5804 -0.477857 97.0818 0.207963 102.504C0.893783 107.927 3.25138 113.001 6.95325 117.022C10.6551 121.043 15.5175 123.811 20.8648 124.942L21.1645 126.441C21.9955 130.595 23.9076 134.456 26.708 137.635C29.5083 140.814 33.0976 143.198 37.1138 144.546C41.1299 145.895 45.4306 146.16 49.5818 145.315C53.7331 144.469 57.5879 142.544 60.7573 139.733V19.9421Z" fill="#0077FF"/>
</svg>
