<svg width="283" height="283" viewBox="0 0 283 283" fill="none" xmlns="http://www.w3.org/2000/svg">
<g clip-path="url(#clip0_5_40)">
<path d="M210.524 3.99026L215.448 19.1449C216.976 23.7559 219.563 27.9452 223 31.3777C226.438 34.8101 230.631 37.3905 235.244 38.9125L250.398 43.8367L250.696 43.9216C251.864 44.333 252.877 45.0971 253.593 46.1084C254.309 47.1197 254.694 48.3283 254.694 49.5674C254.694 50.8066 254.309 52.0152 253.593 53.0264C252.877 54.0377 251.864 54.8018 250.696 55.2133L235.541 60.1375C230.928 61.6594 226.735 64.2398 223.297 67.6723C219.86 71.1047 217.274 75.294 215.745 79.905L210.821 95.0455C210.409 96.2144 209.645 97.2267 208.634 97.9428C207.623 98.6589 206.414 99.0435 205.175 99.0435C203.936 99.0435 202.727 98.6589 201.716 97.9428C200.705 97.2267 199.941 96.2144 199.529 95.0455L194.591 79.905C193.074 75.2837 190.496 71.0821 187.063 67.637C183.628 64.1852 179.431 61.5874 174.809 60.0526L159.655 55.1284C158.486 54.7169 157.473 53.9528 156.757 52.9415C156.041 51.9303 155.657 50.7217 155.657 49.4825C155.657 48.2434 156.041 47.0348 156.757 46.0235C157.473 45.0122 158.486 44.2481 159.655 43.8367L174.809 38.9125C179.365 37.3494 183.496 34.7506 186.877 31.3205C190.258 27.8904 192.796 23.7226 194.294 19.1449L199.218 4.00441C199.626 2.83065 200.39 1.81315 201.403 1.09311C202.416 0.373069 203.628 -0.0137939 204.871 -0.0137939C206.114 -0.0137939 207.326 0.373069 208.339 1.09311C209.352 1.81315 210.115 2.8165 210.524 3.99026ZM279.93 116.228L269.091 112.719C265.802 111.619 262.814 109.77 260.363 107.316C257.912 104.863 256.065 101.873 254.969 98.583L251.431 87.7724C251.138 86.9366 250.593 86.2125 249.871 85.7001C249.148 85.1878 248.284 84.9126 247.399 84.9126C246.513 84.9126 245.649 85.1878 244.927 85.7001C244.204 86.2125 243.659 86.9366 243.366 87.7724L239.857 98.583C238.78 101.852 236.964 104.828 234.549 107.28C232.134 109.732 229.185 111.593 225.933 112.719L215.108 116.228C214.279 116.527 213.562 117.075 213.055 117.797C212.549 118.519 212.277 119.379 212.277 120.261C212.277 121.143 212.549 122.003 213.055 122.725C213.562 123.446 214.279 123.994 215.108 124.294L225.933 127.817C229.232 128.917 232.228 130.771 234.685 133.233C237.141 135.694 238.99 138.694 240.083 141.995L243.592 152.806C243.885 153.642 244.431 154.366 245.153 154.878C245.876 155.39 246.739 155.666 247.625 155.666C248.511 155.666 249.375 155.39 250.097 154.878C250.819 154.366 251.365 153.642 251.658 152.806L255.181 141.995C256.279 138.704 258.128 135.713 260.581 133.259C263.035 130.806 266.026 128.957 269.317 127.859L280.142 124.35C280.971 124.051 281.688 123.503 282.195 122.781C282.702 122.06 282.974 121.199 282.974 120.317C282.974 119.436 282.702 118.575 282.195 117.854C281.688 117.132 280.971 116.584 280.142 116.285L279.93 116.228ZM247.653 169.8C243.888 169.795 240.211 168.662 237.097 166.545C233.984 164.281 231.72 161.296 230.305 157.758L226.626 146.41C226.253 145.215 225.57 144.141 224.645 143.297C223.766 142.416 222.703 141.74 221.532 141.316L210.75 137.779C206.93 136.364 203.817 134.085 201.553 130.972C199.289 127.859 198.157 124.166 198.157 120.332C198.157 117.643 198.723 114.955 199.855 112.549C197.591 111.983 195.468 110.993 193.487 109.578C190.12 107.11 187.556 103.704 186.115 99.7858L181.021 84.334C179.748 81.0795 178.474 79.24 176.918 77.6835C175.017 75.8483 172.744 74.4439 170.253 73.5658L155.24 68.6133C152.794 67.7996 150.53 66.5163 148.575 64.8353V244.116C154.111 249.026 160.844 252.39 168.095 253.867C175.346 255.344 182.858 254.883 189.873 252.529C196.889 250.175 203.159 246.012 208.052 240.461C212.945 234.909 216.287 228.165 217.74 220.91L218.264 218.264C229.334 215.916 239.15 209.568 245.833 200.436C252.516 191.304 255.598 180.029 254.488 168.767C252.281 169.482 249.973 169.831 247.653 169.8ZM134.425 34.8373C129.773 31.4584 124.346 29.3038 118.643 28.5715C112.94 27.8393 107.145 28.553 101.79 30.647C96.4354 32.741 91.6932 36.148 88 40.5546C84.3067 44.9612 81.781 50.2258 80.6551 55.8642L78.8863 64.7362L73.1414 65.8824C64.4885 67.618 56.7033 72.2958 51.1084 79.121C45.5136 85.9463 42.4542 94.498 42.4501 103.323V106.125C42.4501 116.398 46.8366 125.652 53.8408 132.119C45.2856 136.358 38.263 143.156 33.7487 151.57C29.2345 159.983 27.4526 169.594 28.6506 179.066C29.8487 188.539 33.9672 197.403 40.4341 204.427C46.9009 211.452 55.395 216.288 64.7363 218.264L65.2599 220.881C66.7116 228.138 70.052 234.884 74.9439 240.437C79.8358 245.99 86.1061 250.155 93.1219 252.51C100.138 254.865 107.651 255.328 114.903 253.852C122.154 252.376 128.889 249.012 134.425 244.102V34.8373Z" fill="#0077FF"/>
</g>
<defs>
<clipPath id="clip0_5_40">
<rect width="283" height="283" fill="white"/>
</clipPath>
</defs>
</svg>
