<svg width="339" height="339" viewBox="0 0 339 339" fill="none" xmlns="http://www.w3.org/2000/svg">
<path d="M197.75 236.594C197.75 233.784 198.866 231.09 200.853 229.103C202.84 227.116 205.534 226 208.344 226C211.153 226 213.848 227.116 215.835 229.103C217.821 231.09 218.938 233.784 218.938 236.594C218.938 239.403 217.821 242.098 215.835 244.085C213.848 246.071 211.153 247.188 208.344 247.188C205.534 247.188 202.84 246.071 200.853 244.085C198.866 242.098 197.75 239.403 197.75 236.594ZM130.656 226C127.847 226 125.152 227.116 123.165 229.103C121.179 231.09 120.062 233.784 120.062 236.594C120.062 239.403 121.179 242.098 123.165 244.085C125.152 246.071 127.847 247.188 130.656 247.188C133.466 247.188 136.16 246.071 138.147 244.085C140.134 242.098 141.25 239.403 141.25 236.594C141.25 233.784 140.134 231.09 138.147 229.103C136.16 227.116 133.466 226 130.656 226ZM56.5 74.1562C56.5 61.9812 61.3365 50.3047 69.9456 41.6956C78.5547 33.0865 90.2312 28.25 102.406 28.25H236.594C248.769 28.25 260.445 33.0865 269.054 41.6956C277.663 50.3047 282.5 61.9812 282.5 74.1562V264.844C282.5 270.872 281.313 276.842 279.006 282.411C276.699 287.981 273.317 293.042 269.054 297.304C264.792 301.567 259.731 304.949 254.161 307.256C248.592 309.563 242.622 310.75 236.594 310.75H102.406C96.3778 310.75 90.4083 309.563 84.8387 307.256C79.2691 304.949 74.2084 301.567 69.9456 297.304C65.6828 293.042 62.3014 287.981 59.9944 282.411C57.6874 276.842 56.5 270.872 56.5 264.844V74.1562ZM180.094 81.2188C180.094 78.4091 178.978 75.7145 176.991 73.7278C175.004 71.7411 172.31 70.625 169.5 70.625C166.69 70.625 163.996 71.7411 162.009 73.7278C160.022 75.7145 158.906 78.4091 158.906 81.2188V91.8125H127.125C124.315 91.8125 121.621 92.9286 119.634 94.9153C117.647 96.902 116.531 99.5966 116.531 102.406C116.531 105.216 117.647 107.91 119.634 109.897C121.621 111.884 124.315 113 127.125 113H158.906V127.125H109.469C106.659 127.125 103.965 128.241 101.978 130.228C99.9911 132.215 98.875 134.909 98.875 137.719C98.875 140.528 99.9911 143.223 101.978 145.21C103.965 147.196 106.659 148.312 109.469 148.312H158.906V162.438H109.469C106.659 162.438 103.965 163.554 101.978 165.54C99.9911 167.527 98.875 170.222 98.875 173.031C98.875 175.841 99.9911 178.535 101.978 180.522C103.965 182.509 106.659 183.625 109.469 183.625H158.906V204.812H130.656C123.91 204.815 117.34 206.963 111.896 210.947C106.452 214.931 102.417 220.544 100.375 226.974C98.3335 233.403 98.3904 240.316 100.538 246.711C102.685 253.106 106.812 258.652 112.321 262.546C117.83 266.44 124.434 268.48 131.179 268.371C137.925 268.262 144.46 266.009 149.84 261.939C155.22 257.869 159.165 252.193 161.105 245.732C163.045 239.271 162.878 232.36 160.629 226H178.371C176.122 232.36 175.955 239.271 177.895 245.732C179.835 252.193 183.78 257.869 189.16 261.939C194.54 266.009 201.075 268.262 207.821 268.371C214.566 268.48 221.17 266.44 226.679 262.546C232.188 258.652 236.315 253.106 238.462 246.711C240.61 240.316 240.666 233.403 238.625 226.974C236.583 220.544 232.548 214.931 227.104 210.947C221.66 206.963 215.09 204.815 208.344 204.812H180.094V183.625H229.531C232.341 183.625 235.035 182.509 237.022 180.522C239.009 178.535 240.125 175.841 240.125 173.031C240.125 170.222 239.009 167.527 237.022 165.54C235.035 163.554 232.341 162.438 229.531 162.438H180.094V148.312H229.531C232.341 148.312 235.035 147.196 237.022 145.21C239.009 143.223 240.125 140.528 240.125 137.719C240.125 134.909 239.009 132.215 237.022 130.228C235.035 128.241 232.341 127.125 229.531 127.125H180.094V113H211.875C214.685 113 217.379 111.884 219.366 109.897C221.353 107.91 222.469 105.216 222.469 102.406C222.469 99.5966 221.353 96.902 219.366 94.9153C217.379 92.9286 214.685 91.8125 211.875 91.8125H180.094V81.2188Z" fill="#0077FF"/>
</svg>
